<?xml version="1.0" encoding="iso-8859-1"?>
<!-- Generator: Adobe Illustrator 19.0.0, SVG Export Plug-In . SVG Version: 6.00 Build 0)  -->
<svg version="1.1" id="Layer_1" xmlns="http://www.w3.org/2000/svg" xmlns:xlink="http://www.w3.org/1999/xlink" x="0px" y="0px"
	 viewBox="0 0 512.002 512.002" style="enable-background:new 0 0 512.002 512.002;" xml:space="preserve">
<rect x="240.328" y="410.36" style="fill:#DA6A1F;" width="31.348" height="85.968"/>
<path style="fill:#723900;" d="M406.32,165.994v31.348h62.132c-3.686,50.993-25.312,98.436-61.826,134.95
	c-40.234,40.232-93.726,62.391-150.625,62.391l-20.899,15.674l20.899,15.674c65.272,0,126.637-25.418,172.791-71.572
	s71.572-107.52,71.572-172.791v-15.674L406.32,165.994L406.32,165.994z"/>
<path style="fill:#A43700;" d="M105.376,332.292c-36.516-36.516-58.142-83.958-61.826-134.95h62.132v-31.348H11.637v15.674
	c0,65.272,25.418,126.637,71.572,172.791s107.52,71.572,172.791,71.572v-31.348C199.103,394.683,145.609,372.525,105.376,332.292z"
	/>
<path style="fill:#00CCFF;" d="M256.002,0l-31.348,181.667l31.348,181.667c100.332,0,181.667-81.335,181.667-181.667
	c0-50.365-20.496-95.944-53.601-128.849l-19.391-2.399l-4.752-17.778c-3.625-2.532-7.346-4.935-11.157-7.204l-22.492,1.993
	l-7.536-16.306C299.184,3.929,278.052,0,256.002,0z"/>
<path style="fill:#6BE7FF;" d="M74.334,181.667c0,22.05,3.929,43.182,11.123,62.736l18.881,5.833l-4.572,24.19
	c31.676,53.237,89.789,88.908,156.234,88.908V0C155.669,0,74.334,81.335,74.334,181.667z"/>
<g>
	<path style="fill:#CCFFFF;" d="M318.737,11.127L85.461,244.402c3.862,10.496,8.674,20.532,14.317,30.016L348.753,25.443
		C339.269,19.801,329.233,14.99,318.737,11.127z"/>
	<path style="fill:#CCFFFF;" d="M247.792,189.1L384.067,52.826c-7.443-7.398-15.526-14.151-24.154-20.178L225.627,166.934
		L247.792,189.1z"/>
	
		<rect x="190.671" y="208.812" transform="matrix(-0.7071 0.7071 -0.7071 -0.7071 668.8467 171.9265)" style="fill:#CCFFFF;" width="216.291" height="31.348"/>
</g>
<polygon style="fill:#723900;" points="389.755,480.652 256.002,480.652 235.103,496.326 256.002,512 389.755,512 "/>
<rect x="122.25" y="480.654" style="fill:#A43700;" width="133.753" height="31.348"/>
<g>
</g>
<g>
</g>
<g>
</g>
<g>
</g>
<g>
</g>
<g>
</g>
<g>
</g>
<g>
</g>
<g>
</g>
<g>
</g>
<g>
</g>
<g>
</g>
<g>
</g>
<g>
</g>
<g>
</g>
</svg>
