<svg width="60" height="60" viewBox="0 0 60 60" fill="none" xmlns="http://www.w3.org/2000/svg">
<path d="M29.0049 48.401C38.925 48.401 46.9668 40.3591 46.9668 30.439C46.9668 20.5189 38.925 12.4771 29.0049 12.4771C19.0848 12.4771 11.0429 20.5189 11.0429 30.439C11.0429 40.3591 19.0848 48.401 29.0049 48.401Z" fill="#FFC500"/>
<path d="M30.2781 45.8575C20.3561 45.8575 12.3161 37.8146 12.3161 27.8955C12.3132 25.5906 12.7554 23.3069 13.6185 21.1697C11.9278 23.9654 11.0369 27.1717 11.0429 30.4389C11.0429 40.358 19.0859 48.4009 29.0049 48.4009C36.5473 48.4009 43.0039 43.7531 45.6644 37.1648C42.521 42.3746 36.8049 45.8575 30.2781 45.8575Z" fill="#FF9F1E"/>
<path d="M29.0049 12.4771C25.1564 12.4705 21.4086 13.7064 18.319 16.001C22.5597 14.3645 27.2212 14.1701 31.5834 15.4478C31.5479 15.4953 31.5156 15.5452 31.4868 15.5971C30.9542 16.5893 32.04 18.2049 33.9102 19.2059C35.7805 20.2068 37.7239 20.2185 38.2566 19.2293C38.3086 19.1332 38.3452 19.0295 38.3649 18.922C43.2029 22.6683 46.3229 28.5249 46.3551 35.1102C46.762 33.5865 46.9676 32.0161 46.9668 30.439C46.9668 20.52 38.9268 12.4771 29.0049 12.4771Z" fill="#FFE059"/>
<path d="M21.6039 30.0995C21.6708 28.567 20.9369 27.2902 19.9647 27.2477C18.9926 27.2053 18.1502 28.4132 18.0833 29.9458C18.0164 31.4783 18.7503 32.7551 19.7224 32.7976C20.6946 32.84 21.5369 31.632 21.6039 30.0995Z" fill="#00305F"/>
<path d="M31.0281 32.821C32.0003 32.7786 32.7342 31.5018 32.6672 29.9692C32.6003 28.4367 31.758 27.2287 30.7858 27.2712C29.8136 27.3136 29.0798 28.5904 29.1467 30.1229C29.2136 31.6555 30.056 32.8634 31.0281 32.821Z" fill="#00305F"/>
<path d="M27.9864 38.6312C27.8252 38.6313 27.6671 38.5868 27.5298 38.5025C26.602 37.9317 25.5629 37.7532 24.4449 37.9698C23.5639 38.1395 22.9551 38.4995 22.9493 38.5054H22.9551C21.5005 38.8595 20.8127 37.7532 22.0361 37.0069C22.1181 36.9571 22.8878 36.4976 24.0351 36.2634C25.6068 35.9415 27.1317 36.1991 28.4488 37.0069C28.6125 37.1069 28.7389 37.2577 28.8088 37.4364C28.8786 37.615 28.8881 37.8116 28.8356 37.9962C28.7832 38.1807 28.6718 38.3429 28.5184 38.4582C28.3651 38.5734 28.1782 38.6352 27.9864 38.6342V38.6312Z" fill="#00305F"/>
<path d="M41.602 25.759C41.5094 25.7592 41.4175 25.7444 41.3298 25.7151C41.1815 25.667 41.0487 25.5804 40.9448 25.4642C40.8409 25.348 40.7698 25.2063 40.7385 25.0536L40.3142 22.9405C38.3795 22.8644 36.562 22.3229 35.16 21.401C34.3873 20.8917 33.7756 20.2917 33.3424 19.6156C32.8712 18.881 32.6312 18.0936 32.6312 17.2741C32.6312 16.4546 32.8712 15.6673 33.3424 14.9327C33.7756 14.2566 34.3873 13.6566 35.16 13.1502C36.679 12.1492 38.6781 11.599 40.7942 11.599C42.9103 11.599 44.9093 12.1492 46.4283 13.1502C47.201 13.6566 47.8098 14.2566 48.2459 14.9327C48.7171 15.6673 48.9571 16.4546 48.9571 17.2741C48.9571 18.1492 48.5385 19.1414 47.7132 20.2214C47.3598 20.6838 46.9713 21.1182 46.5512 21.521L42.1961 25.5278C42.0333 25.6754 41.8217 25.7577 41.602 25.759V25.759Z" fill="#4795FF"/>
<path d="M37.6859 17.9502C38.2128 17.9502 38.64 17.523 38.64 16.996C38.64 16.4691 38.2128 16.0419 37.6859 16.0419C37.1589 16.0419 36.7317 16.4691 36.7317 16.996C36.7317 17.523 37.1589 17.9502 37.6859 17.9502Z" fill="#00305F"/>
<path d="M41.201 17.9502C41.7279 17.9502 42.1551 17.523 42.1551 16.996C42.1551 16.4691 41.7279 16.0419 41.201 16.0419C40.674 16.0419 40.2468 16.4691 40.2468 16.996C40.2468 17.523 40.674 17.9502 41.201 17.9502Z" fill="#00305F"/>
<path d="M44.7132 17.9502C45.2401 17.9502 45.6673 17.523 45.6673 16.996C45.6673 16.4691 45.2401 16.0419 44.7132 16.0419C44.1862 16.0419 43.759 16.4691 43.759 16.996C43.759 17.523 44.1862 17.9502 44.7132 17.9502Z" fill="#00305F"/>
</svg>
