<?xml version="1.0" encoding="iso-8859-1"?>
<!-- Generator: Adobe Illustrator 19.0.0, SVG Export Plug-In . SVG Version: 6.00 Build 0)  -->
<svg version="1.1" id="Capa_1" xmlns="http://www.w3.org/2000/svg" xmlns:xlink="http://www.w3.org/1999/xlink" x="0px" y="0px"
	 viewBox="0 0 470 470" style="enable-background:new 0 0 470 470;" xml:space="preserve">
<g>
	<path style="fill:#BCC987;" d="M292.93,87.663c-7.791-25.473-25.164-48.496-50.43-66.364v112.209l9.551-8.683
		c3.066-2.784,7.81-2.56,10.595,0.505c2.786,3.064,2.56,7.809-0.505,10.595L242.5,153.78v62.135
		c35.178-24.878,55.082-59.742,55.082-97.308c0-4.728-0.327-9.411-0.948-14.04l-12.295,11.177c-1.437,1.306-3.243,1.95-5.043,1.95
		c-2.04,0-4.071-0.827-5.551-2.455c-2.787-3.064-2.561-7.808,0.504-10.595L292.93,87.663z"/>
	<path style="fill:#D4ED85;" d="M227.5,215.916V153.78l-54.133-49.211c-0.621,4.628-0.948,9.311-0.948,14.039
		C172.419,156.174,192.322,191.038,227.5,215.916z"/>
	<path style="fill:#D4ED85;" d="M227.5,133.509V21.299c-25.266,17.868-42.639,40.891-50.43,66.364L227.5,133.509z"/>
	<path style="fill:#87635C;" d="M362.421,408.923c-10.956,0-21.621,2.066-31.7,6.143c-3.246,1.313-6.97,0.204-8.97-2.672
		C301.99,383.969,269.559,367,235,367s-66.989,16.97-86.751,45.395c-2,2.876-5.722,3.985-8.97,2.672
		c-10.08-4.076-20.745-6.143-31.7-6.143c-34.751,0-66.046,21.421-78.732,53.575h412.306
		C428.467,430.345,397.172,408.923,362.421,408.923z M99.755,439.954c-4.411,0-8-3.589-8-8s3.589-8,8-8s8,3.589,8,8
		S104.166,439.954,99.755,439.954z M277.755,414.954c-4.411,0-8-3.589-8-8s3.589-8,8-8s8,3.589,8,8S282.166,414.954,277.755,414.954
		z M303.755,439.954c-4.411,0-8-3.589-8-8s3.589-8,8-8s8,3.589,8,8S308.166,439.954,303.755,439.954z"/>
	<path style="fill:#4D3D36;" d="M456.238,459.971c-14.141-39.505-51.842-66.048-93.816-66.048c-10.911,0-21.584,1.744-31.805,5.191
		c-21.75-28.266-54.93-45.493-90.538-46.996c-10.017-25.763-4.495-39.217,1.858-54.657c6.571-15.969,13.961-33.944,2.383-64.71
		c19.821-12.759,36.334-28.889,47.981-46.959c13.269-20.588,20.283-43.82,20.283-67.186c0-9.951-1.284-19.876-3.77-29.584
		c-0.078-0.535-0.22-1.063-0.414-1.575c-3.386-12.531-8.787-24.681-16.099-36.027c-12.707-19.716-31.195-37.134-53.467-50.37
		c-0.027-0.016-0.057-0.027-0.084-0.042c-0.528-0.306-1.095-0.548-1.694-0.718c-0.073-0.021-0.146-0.038-0.219-0.056
		c-0.225-0.057-0.454-0.103-0.686-0.139c-0.082-0.013-0.164-0.028-0.246-0.038c-0.286-0.034-0.576-0.057-0.872-0.058
		c-0.021,0-0.041,0-0.062,0c-0.295,0.001-0.585,0.023-0.872,0.058c-0.083,0.01-0.164,0.025-0.246,0.038
		c-0.233,0.036-0.461,0.082-0.687,0.139c-0.073,0.018-0.146,0.036-0.219,0.056c-0.599,0.17-1.166,0.413-1.694,0.718
		c-0.027,0.016-0.057,0.026-0.084,0.042c-22.271,13.236-40.76,30.654-53.467,50.37c-7.304,11.333-12.7,23.469-16.087,35.985
		c-0.207,0.536-0.355,1.088-0.434,1.648c-2.48,9.699-3.762,19.613-3.762,29.553c0,23.365,7.014,46.598,20.283,67.186
		c12.295,19.076,30.013,35.99,51.323,49.057c11.235,27.241,5.576,41.021-0.96,56.904c-6.282,15.266-13.306,32.371-3.795,60.728
		c-33.449,2.993-64.29,19.868-84.885,46.633c-10.221-3.447-20.894-5.191-31.805-5.191c-41.974,0-79.676,26.543-93.816,66.048
		c-1.396,3.899,0.634,8.192,4.534,9.589c3.896,1.395,8.192-0.634,9.589-4.534c0.305-0.851,0.631-1.69,0.961-2.527
		c12.686-32.154,43.981-53.575,78.732-53.575c10.956,0,21.621,2.066,31.7,6.143c3.248,1.313,6.97,0.204,8.97-2.672
		C168.011,383.969,200.442,367,235,367s66.989,16.97,86.751,45.395c2,2.876,5.724,3.985,8.97,2.672
		c10.08-4.076,20.745-6.143,31.7-6.143c34.751,0,66.046,21.421,78.732,53.575c0.33,0.837,0.657,1.676,0.961,2.527
		c1.097,3.065,3.983,4.975,7.062,4.975c0.839,0,1.692-0.142,2.527-0.44C455.603,468.164,457.633,463.871,456.238,459.971z
		 M273.745,115.241c1.48,1.628,3.512,2.455,5.551,2.455c1.8,0,3.606-0.645,5.043-1.95l12.295-11.177
		c0.621,4.628,0.948,9.312,0.948,14.04c0,37.566-19.904,72.43-55.082,97.308V153.78l19.641-17.855
		c3.065-2.786,3.291-7.53,0.505-10.595c-2.785-3.064-7.528-3.289-10.595-0.505l-9.551,8.683V21.299
		c25.266,17.868,42.639,40.891,50.43,66.364l-18.681,16.983C271.184,107.433,270.958,112.176,273.745,115.241z M227.5,21.299
		v112.209l-50.43-45.845C184.861,62.19,202.234,39.167,227.5,21.299z M173.367,104.569L227.5,153.78v62.135
		c-35.178-24.878-55.082-59.742-55.082-97.308C172.419,113.88,172.746,109.197,173.367,104.569z"/>
	<path style="fill:#4D3D36;" d="M99.755,423.954c-4.411,0-8,3.589-8,8s3.589,8,8,8s8-3.589,8-8S104.166,423.954,99.755,423.954z"/>
	<path style="fill:#4D3D36;" d="M303.755,423.954c-4.411,0-8,3.589-8,8s3.589,8,8,8s8-3.589,8-8S308.166,423.954,303.755,423.954z"
		/>
	<path style="fill:#4D3D36;" d="M277.755,398.954c-4.411,0-8,3.589-8,8s3.589,8,8,8s8-3.589,8-8S282.166,398.954,277.755,398.954z"
		/>
</g>
<g>
</g>
<g>
</g>
<g>
</g>
<g>
</g>
<g>
</g>
<g>
</g>
<g>
</g>
<g>
</g>
<g>
</g>
<g>
</g>
<g>
</g>
<g>
</g>
<g>
</g>
<g>
</g>
<g>
</g>
</svg>
